<svg viewBox="0 0 1884 176" fill="none" xmlns="http://www.w3.org/2000/svg"><path d="M841.964 56.442C647.053 56.442 1.209 173.5 1.209 173.5H1884v-161s-215.47 121.331-454.93 128.331c-239.46 7-392.19-84.389-587.106-84.389z" fill="#fff" fill-opacity=".25"/><path d="M628.47 155.197C433.559 155.197 1.21 0 1.21 0v173.5H1884V13.517s-81.8 172.719-353.08 82.104c-271.27-90.615-707.539 59.576-902.45 59.576z" fill="#fff" fill-opacity=".25"/><path d="M598.599 53.448C403.688 53.448.229 112.5.229 112.5v63H1883.02V14s-458.17 111-697.63 118c-239.463 7-391.88-78.552-586.791-78.552z" fill="#fff"/></svg>