<svg width="1920" height="394" fill="none" xmlns="http://www.w3.org/2000/svg"><path d="M857.37 56.232C658.607 56.232 0 207.524 0 207.524V394h1920V12s-219.73 122.13-463.92 129.176c-244.19 7.047-399.94-84.944-598.71-84.944z" fill="#fff" fill-opacity=".25"/><path d="M639.657 155.197C440.894 155.197 0 0 0 0v394h1920V13.517s-83.42 172.719-360.06 82.104c-276.63-90.615-721.52 59.576-920.283 59.576z" fill="#fff" fill-opacity=".25"/><path d="M610.196 53.5C411.433 53.5 0 112.63 0 112.63V394h1920V14s-467.22 111.146-711.42 118.155C964.388 139.165 808.959 53.5 610.196 53.5z" fill="#fff"/></svg>