<svg width="1440" height="394" fill="none" xmlns="http://www.w3.org/2000/svg"><path d="M761.37 56.442C562.607 56.442-96 206.744-96 206.744V392h1920V12.5s-219.72 121.331-463.92 128.331c-244.19 7-399.946-84.389-598.71-84.389z" fill="#fff" fill-opacity=".25"/><path d="M543.657 155.197C344.894 155.197-96 0-96 0v394h1920V13.517s-83.42 172.719-360.06 82.104c-276.63-90.615-721.52 59.576-920.283 59.576z" fill="#fff" fill-opacity=".25"/><path d="M513.196 53.448C314.433 53.448-97 178.5-97 178.5v215h1920V14s-467.22 111-711.42 118c-244.192 7-399.621-78.552-598.384-78.552z" fill="#fff"/></svg>