<svg viewBox="0 0 1920 175" fill="none" xmlns="http://www.w3.org/2000/svg"><path d="M857.37 56.488C658.607 56.488 0 175 0 175h1920V12s-219.72 122.838-463.92 129.925c-244.2 7.087-399.95-85.437-598.71-85.437z" fill="#fff" fill-opacity=".25"/><path d="M639.658 156.539C440.894 156.539 0 0 0 0v175h1920V13.634s-83.42 174.212-360.06 82.814c-276.63-91.398-721.52 60.091-920.282 60.091z" fill="#fff" fill-opacity=".25"/><path d="M610.196 53.326C411.433 53.326 0 112.195 0 112.195V175h1920V14s-467.22 110.656-711.42 117.635c-244.191 6.978-399.621-78.31-598.384-78.31z" fill="#fff"/></svg>